<?xml version="1.0" standalone="no"?>
<!DOCTYPE svg PUBLIC "-//W3C//DTD SVG 20010904//EN"
 "http://www.w3.org/TR/2001/REC-SVG-20010904/DTD/svg10.dtd">
<svg version="1.0" xmlns="http://www.w3.org/2000/svg"
 width="276.000000pt" height="276.000000pt" viewBox="0 0 276.000000 276.000000"
 preserveAspectRatio="xMidYMid meet">

<g transform="translate(0.000000,276.000000) scale(0.100000,-0.100000)"
fill="#000000" stroke="none">
<path d="M2030 1830 l0 -110 40 0 40 0 0 -120 0 -120 -40 0 -40 0 0 -75 0 -75
-34 0 c-33 0 -35 -2 -38 -37 l-3 -38 -140 -3 c-77 -2 -182 0 -232 3 l-93 7 0
39 c0 39 0 39 40 39 39 0 40 1 40 35 l0 34 -77 3 -78 3 -3 33 c-3 29 -6 32
-38 32 l-34 0 0 80 0 80 -40 0 c-39 0 -40 1 -40 35 0 33 -2 35 -36 35 -34 0
-35 -1 -32 -32 3 -32 1 -33 -34 -36 -37 -3 -38 -4 -38 -43 0 -37 2 -39 30 -39
28 0 30 -2 28 -37 -1 -36 -1 -36 -5 -7 -4 28 -9 32 -41 38 -20 3 -67 6 -104 6
l-68 0 0 40 0 40 -40 0 c-39 0 -40 1 -40 35 0 33 -2 35 -33 35 -30 0 -32 -2
-32 -32 0 -31 -2 -33 -37 -36 l-38 -3 0 -93 c0 -51 -3 -121 -6 -155 l-7 -61
47 0 46 0 0 44 c0 44 0 45 -37 49 l-38 4 40 -1 40 -1 0 -50 c0 -50 0 -50 -34
-53 -19 -2 -45 -1 -58 3 -21 5 -24 11 -21 43 l3 37 -68 3 -67 3 0 -36 c0 -35
0 -35 44 -35 41 0 45 2 48 28 2 15 3 -30 2 -99 -1 -70 -4 -132 -8 -138 -5 -7
6 -11 33 -11 l41 0 0 -40 0 -40 41 0 41 0 -4 -115 -3 -115 38 0 37 0 0 -74 0
-75 38 -3 c34 -3 37 -6 42 -38 l5 -35 68 0 67 0 0 38 0 37 45 0 c45 0 45 0 45
35 l0 35 -120 0 -120 0 0 40 c0 39 -1 40 -34 40 -33 0 -33 1 -40 53 -11 96
-11 97 34 97 l40 0 0 40 0 40 40 0 40 0 0 -40 0 -40 40 0 c39 0 40 -1 40 -35
0 -33 2 -35 34 -35 19 0 38 -5 42 -11 3 -6 6 -91 6 -190 l0 -179 30 0 30 0 -5
68 c-2 37 -2 52 0 35 4 -31 7 -33 44 -33 39 0 39 0 39 40 l0 40 155 0 155 0 0
-40 c0 -39 1 -40 34 -40 33 0 35 -2 38 -37 3 -36 5 -38 37 -38 l34 0 1 75 1
75 43 3 42 3 0 -39 c0 -39 1 -40 33 -38 30 1 32 -1 35 -36 3 -36 5 -38 38 -38
l34 0 0 184 0 185 -37 3 -38 3 0 110 0 110 38 3 c36 3 37 4 37 43 0 38 -1 39
-35 39 -19 0 -35 5 -35 10 0 6 13 10 29 10 25 0 30 5 34 28 3 22 4 20 6 -10 1
-37 2 -38 41 -38 l40 0 0 40 c0 39 1 40 35 40 l35 0 0 75 0 75 -37 2 c-37 1
-37 1 -5 5 l32 4 0 170 0 169 -27 1 -28 1 30 7 c30 6 30 6 33 84 l3 77 -71 0
-70 0 0 -110z m57 -7 c-2 -21 -4 -6 -4 32 0 39 2 55 4 38 2 -18 2 -50 0 -70z
m-1194 -275 c-56 -9 -62 -12 -66 -36 -3 -21 -4 -18 -6 11 l-1 37 68 -1 67 -2
-62 -9z m-90 -75 c-7 -2 -21 -2 -30 0 -10 3 -4 5 12 5 17 0 24 -2 18 -5z m526
-20 c-1 -23 -2 -24 -6 -6 -4 20 -12 22 -71 26 l-67 3 73 2 72 2 -1 -27z m-124
-78 c0 -50 0 -50 -34 -53 -19 -2 -44 -1 -57 2 -21 6 -24 12 -24 50 0 51 7 56
70 53 l45 -2 0 -50z m122 -22 c-2 -16 -4 -5 -4 22 0 28 2 40 4 28 2 -13 2 -35
0 -50z m763 -13 l0 -70 -37 2 c-37 1 -37 1 -5 5 l32 4 0 65 c0 35 2 64 5 64 3
0 5 -31 5 -70z m-1137 13 c-13 -2 -35 -2 -50 0 -16 2 -5 4 22 4 28 0 40 -2 28
-4z m-73 -48 c0 -34 -1 -35 -40 -35 l-40 0 0 -45 0 -45 45 0 c45 0 45 0 45 35
0 33 2 35 33 35 32 0 33 -1 28 -37 l-6 -38 -3 33 c-4 39 -32 45 -32 6 0 -35
-22 -54 -63 -54 -45 0 -59 18 -55 72 3 40 5 43 36 46 28 3 32 7 32 33 0 16 5
29 10 29 6 0 10 -16 10 -35z m133 -28 c31 -4 31 -4 -5 -5 -38 -2 -38 -2 -36
36 1 36 1 36 5 5 4 -27 9 -32 36 -36z m399 23 c4 -29 4 -30 -36 -28 -37 1 -38
2 -8 5 23 3 32 9 32 23 0 14 -9 20 -32 23 l-33 4 36 1 c34 2 37 -1 41 -28z
m-355 -97 c-2 -16 -4 -5 -4 22 0 28 2 40 4 28 2 -13 2 -35 0 -50z m270 0 c-2
-16 -4 -5 -4 22 0 28 2 40 4 28 2 -13 2 -35 0 -50z m252 -29 c-6 -8 -24 -14
-40 -14 -23 0 -28 -5 -32 -27 -3 -23 -4 -21 -6 10 -1 37 -1 37 39 37 38 0 40
1 41 33 2 31 2 31 6 4 3 -16 -1 -35 -8 -43z m361 -19 c0 -34 -1 -35 -37 -33
-37 1 -37 1 -5 5 28 4 32 8 32 34 0 16 2 29 5 29 3 0 5 -16 5 -35z m-900 15
c0 -5 -18 -10 -40 -10 -22 0 -40 5 -40 10 0 6 18 10 40 10 22 0 40 -4 40 -10z
m370 -20 c0 -28 -2 -30 -37 -28 -37 1 -37 1 -5 5 42 6 44 33 2 33 -16 0 -30 5
-30 10 0 6 16 10 35 10 32 0 35 -2 35 -30z m-83 -102 c-2 -13 -4 -3 -4 22 0
25 2 35 4 23 2 -13 2 -33 0 -45z m146 45 c-27 -4 -32 -9 -35 -36 l-3 -32 -6
38 -5 37 41 -2 c36 -1 36 -2 8 -5z m-70 -80 c-13 -2 -33 -2 -45 0 -13 2 -3 4
22 4 25 0 35 -2 23 -4z m-540 -120 c-7 -2 -19 -2 -25 0 -7 3 -2 5 12 5 14 0
19 -2 13 -5z m1075 -160 l-2 -138 -3 132 -4 132 -32 4 c-31 4 -31 4 6 5 l37 2
-2 -137z m-250 10 c-65 -2 -171 -2 -235 0 -65 1 -12 3 117 3 129 0 182 -2 118
-3z m-739 -45 c-1 -16 -3 -18 -6 -6 -2 9 -12 19 -21 21 -12 3 -10 5 6 6 17 1
22 -4 21 -21z m381 -8 c0 -27 -3 -30 -32 -29 -31 2 -31 2 -5 6 21 3 27 10 27
29 0 13 2 24 5 24 3 0 5 -13 5 -30z m487 -2 c-3 -7 -5 -2 -5 12 0 14 2 19 5
13 2 -7 2 -19 0 -25z m-727 -48 c0 -5 -25 -10 -55 -10 -30 0 -55 5 -55 10 0 6
25 10 55 10 30 0 55 -4 55 -10z"/>
<path d="M1110 1375 l0 -45 45 0 45 0 0 45 0 45 -45 0 -45 0 0 -45z"/>
<path d="M2170 1605 l0 -185 40 0 40 0 0 185 0 185 -40 0 -40 0 0 -185z"/>
<path d="M580 1225 c0 -35 0 -35 45 -35 45 0 45 0 45 35 0 35 0 35 -45 35 -45
0 -45 0 -45 -35z"/>
</g>
</svg>
